# xmcd CD database file
#
# Track frame offsets:
#	150
#	21497
#	44112
#	61787
#	84895
#	102707
#	121832
#	139885
#	163575
#	184037
#
# Disc length: 2662 seconds
#
# Revision: 7
# Processed by: cddbd v1.5.1PL2 Copyright (c) Steve Scherf et al.
# Submitted via: CDex 1.51
#
DISCID=880a640a
DTITLE=PRINCESS PRINCESS - "LOVERS"
DYEAR=1989
DGENRE=Rock
TTITLE0=ムーンライト ストーリー
TTITLE1=友達のまま
TTITLE2=DING DONG
TTITLE3=レイン
TTITLE4=恋に落ちたら
TTITLE5=スパイ イン ラヴ
TTITLE6=シェイク イット オフ
TTITLE7=パパ
TTITLE8=海賊と私
TTITLE9=パレードしようよ
EXTD=YEAR: 1989
EXTT0=
EXTT1=
EXTT2=
EXTT3=
EXTT4=
EXTT5=
EXTT6=
EXTT7=
EXTT8=
EXTT9=
PLAYORDER=
